<?xml version="1.0" ?><svg style="enable-background:new 0 0 96 96;" version="1.1" viewBox="0 0 96 96" xml:space="preserve" xmlns="http://www.w3.org/2000/svg" xmlns:xlink="http://www.w3.org/1999/xlink"><style type="text/css">
	.st0{display:none;}
	.st1{fill:#FFFFFF;}
	.st2{fill:none;stroke:#000000;stroke-width:2;stroke-linecap:round;stroke-linejoin:round;stroke-miterlimit:10;}
	.st3{fill:#FFF8FA;}
	.st4{stroke:#000000;stroke-width:2;stroke-miterlimit:10;}
	.st5{fill:none;stroke:#000000;stroke-miterlimit:10;}
	.st6{fill:none;stroke:#000000;stroke-width:2;stroke-linecap:round;stroke-miterlimit:10;}
	.st7{fill:#231F20;stroke:#000000;stroke-width:0;stroke-miterlimit:10;}
	.st8{fill:#FF0D5C;}
	.st9{display:inline;}
	.st10{fill:none;stroke:#00D8E9;stroke-width:0.25;stroke-linecap:round;stroke-linejoin:round;stroke-miterlimit:10;}
	.st11{fill:none;stroke:#00D8E9;stroke-width:0.25;stroke-linejoin:round;stroke-miterlimit:10;}
	.st12{fill:none;stroke:#00D8E9;stroke-linecap:round;stroke-linejoin:round;stroke-miterlimit:10;}
	.st13{fill:none;stroke:#00D8E9;stroke-linejoin:round;stroke-miterlimit:10;}
</style><g id="banana"/><g id="Layer_12"/><g id="grape"/><g id="assasin"/><g id="gold"/><g id="mage_ass"/><g id="fighter"/><g id="SUPPORT"/><g id="marksman"/><g id="JUNGLE"/><g id="TANK"/><g class="st0" id="creditcard"/><g class="st0" id="CAKE"/><g class="st0" id="TOPI"/><g class="st0" id="SPATU"/><g class="st0" id="SETTING"/><g class="st0" id="CART"/><g class="st0" id="k3"/><g class="st0" id="computer"/><g class="st0" id="phone"/><g class="st0" id="location"/><g id="koper"><g id="Layer_29"/><path d="M72.8,25l-15.5,0l-2.7,2.7l10.2,0.6c0.4,0,0.7,0.3,0.9,0.6c0.1,0.4,0.1,0.8-0.2,1.1l-7.2,7.2c0,0,0,0,0,0L52,43.3l0,0   c-0.4,0.4-1,0.5-1.4,0.1C44,38,34.5,38.6,28.1,45c-6.7,6.7-6.6,17.7,0.2,24.5c6.8,6.8,17.8,6.9,24.5,0.2c6.4-6.4,7.1-15.9,1.6-22.5   c-0.3-0.4-0.3-1.1,0.1-1.4l0,0l6.2-6.2l0.2-0.2l7-7c0.3-0.3,0.7-0.4,1.1-0.2c0.4,0.1,0.6,0.5,0.6,0.9l0.6,10.2l2.7-2.7L72.8,25z    M48.9,65.9c-4.6,4.6-12.1,4.5-16.7-0.2c-2.3-2.3-3.5-5.2-3.5-8.4c0-3.2,1.2-6.1,3.4-8.3c2.2-2.2,5.1-3.4,8.2-3.4c0,0,0.1,0,0.1,0   c3.2,0,6.1,1.3,8.4,3.5C53.4,53.8,53.5,61.3,48.9,65.9z"/></g><g class="st0" id="guide"/><g id="MAGICAL"/><g id="phisical"/><g id="mango"/><g id="orange"/></svg>